<svg version="1.1" id="Layer_1" xmlns="http://www.w3.org/2000/svg" x="0" y="0" viewBox="0 0 1000 562" style="enable-background:new 0 0 1000 562" xml:space="preserve"><style>.st1{fill:#fff}</style><path style="fill:#02262b" d="M639.3 92.2 658.5 0H92.8L0 443.2h473L447 562h453.1L1000 92.2z"/><path class="st1" d="M192.8 386.6c-12.8 0-24.9-2.1-36.3-6.3-11.4-4.2-21.3-10.4-29.8-18.6-8.5-8.2-15.2-18.3-20.1-30.2-4.9-12-7.4-25.7-7.4-41.3 0-21.2 2.9-40.6 8.9-58 5.9-17.5 14.1-32.4 24.7-44.9 10.5-12.5 23.2-22.1 37.9-29 14.7-6.8 30.9-10.3 48.4-10.3 11.8 0 23 2.1 33.7 6.2 10.6 4.1 19.9 10.1 27.9 18.1 8 7.9 14.3 17.6 19 29.2 4.7 11.5 7.1 24.8 7.1 39.8 0 2.3-.1 5-.2 8-.1 3.1-.4 6.2-.7 9.4-.3 3.2-.6 6.3-.9 9.4-.3 3.1-.6 5.7-1.1 7.8h-166c-.1 2-.3 3.9-.3 5.8-.1 1.9-.1 3.8-.1 5.8 0 11.8 1.7 21.9 5.1 30.2 3.4 8.3 7.9 15.1 13.4 20.4 5.5 5.3 11.6 9.1 18.5 11.4 6.8 2.4 13.7 3.5 20.7 3.5 15.2 0 27.5-2.6 36.8-7.9 9.3-5.3 16.3-12.4 21.2-21.4h39.1c-2.4 8.8-6.4 17.1-12 24.8-5.6 7.7-12.6 14.4-21.1 20-8.5 5.6-18.3 10.1-29.5 13.3-11.2 3.2-23.5 4.8-36.9 4.8zm75-140.5c.1-.7.3-2 .3-4 .1-1.9.1-3.8.1-5.7 0-7.6-1.1-14.7-3.3-21.5-2.2-6.8-5.5-12.7-9.9-17.9-4.4-5.1-9.9-9.2-16.5-12.2s-14.2-4.5-22.9-4.5c-8.8 0-17.1 1.6-24.8 4.7-7.7 3.1-14.7 7.6-20.9 13.4-6.3 5.8-11.7 12.7-16.2 20.7-4.6 8-8.2 17-10.9 26.8l125 .2zM411.6 386.6c-11.5 0-22.4-2.2-32.5-6.5-10.1-4.3-19-10.6-26.6-18.7-7.6-8.1-13.7-18-18.1-29.5-4.4-11.5-6.6-24.4-6.6-38.7 0-13.8 1.4-27 4.2-39.6 2.8-12.6 6.7-24.3 11.9-35.1 5.1-10.8 11.3-20.5 18.5-29.2 7.2-8.7 15.2-16.1 23.9-22.2 8.8-6.1 18.2-10.8 28.4-14.1 10.2-3.3 20.8-4.9 32-4.9 8.3 0 16.1 1.1 23.6 3.4s14.3 5.4 20.3 9.5c6.1 4.1 11.3 9 15.6 14.7 4.3 5.8 7.5 12.1 9.5 18.9h3.4l28.4-134H585l-68.4 322h-35.5l6.6-31.4h-3.4c-8.4 11-19 19.6-31.6 26-12.7 6.2-26.4 9.4-41.1 9.4zm11.8-33.2c12 0 23-2.8 33.2-8.4 10.2-5.6 19.1-13.3 26.6-23.1 7.6-9.8 13.5-21.2 17.7-34.4s6.4-27.4 6.4-42.6c0-9.8-1.4-18.7-4.1-26.5-2.7-7.8-6.6-14.5-11.5-20-5-5.5-11.1-9.7-18.2-12.7s-15.2-4.5-24.2-4.5c-11.8 0-22.8 2.6-32.9 7.9-10.1 5.3-18.9 12.6-26.3 22-7.4 9.4-13.3 20.6-17.5 33.7-4.3 13-6.4 27.3-6.4 42.9 0 9.7 1.4 18.6 4.2 26.7s6.7 15.1 11.6 20.8c5 5.8 11 10.3 18 13.5 7.1 3.1 14.8 4.7 23.4 4.7zM920.5 152.7h-83.4l-91 112.7h-4.5l-48.1-112.7h-84.4l72.3 163.7-156.2 185h82.3l100.3-118.8h6.7l54.2 118.8h82.8l-80.1-176.8z"/></svg>