<svg width="150" height="74" viewBox="0 0 150 74" fill="none" xmlns="http://www.w3.org/2000/svg">
<g clip-path="url(#clip0_304_16851)">
<path d="M70.6319 41.2876C70.6869 41.4873 70.7879 41.6885 70.7894 41.8882C70.7986 45.4179 70.7879 48.9477 70.8077 52.4775C70.8108 52.9229 70.664 53.1579 70.2848 53.376C58.82 59.9932 47.3612 66.6226 35.8979 73.2413C35.7343 73.335 35.508 73.3212 35.3108 73.358C35.3658 73.0692 35.4668 72.7789 35.4683 72.4902C35.479 68.9358 35.4744 65.383 35.4744 61.8287C41.6059 58.2544 47.7405 54.6847 53.8674 51.1043C56.0371 49.8355 58.1915 48.5391 60.3521 47.255C61.0432 46.8833 61.7466 46.5315 62.4239 46.1353C65.164 44.5255 67.8964 42.9035 70.6319 41.2876Z" fill="#F41868"/>
<path d="M0.307498 32.8995C0.25551 32.6429 0.15918 32.388 0.15918 32.1314C0.148476 28.7061 0.166825 25.2793 0.137773 21.854C0.133186 21.2857 0.331963 21 0.80444 20.7266C12.202 14.1524 23.5904 7.55984 34.9864 0.981097C35.1714 0.873576 35.4222 0.878183 35.6408 0.830566C35.5843 1.11934 35.4803 1.40811 35.4803 1.69688C35.4696 5.24967 35.4726 8.80401 35.4726 12.3568C28.4176 16.4672 21.361 20.5745 14.309 24.691C13.0613 25.4191 11.835 26.184 10.598 26.932C10.2846 27.015 9.93441 27.035 9.66377 27.1916C7.36866 28.5264 5.07661 29.8735 2.80138 31.2436C1.94817 31.7567 1.13777 32.345 0.307498 32.8995Z" fill="#32DD88"/>
<path d="M0.30587 53.1748C0.255411 52.946 0.159083 52.7171 0.159083 52.4882C0.149908 49.0138 0.163668 45.5393 0.139204 42.0649C0.136146 41.5595 0.292109 41.2984 0.72636 41.0496C2.997 39.7516 5.24776 38.4153 7.50464 37.0928C10.9328 35.1113 14.3609 33.1299 17.789 31.1484C17.9923 31.0455 18.2018 30.9533 18.3991 30.8381C23.8823 27.6693 29.3639 24.4944 34.8517 21.3333C35.081 21.2012 35.3746 21.1797 35.6376 21.106C35.5826 21.3947 35.4816 21.685 35.4801 21.9738C35.4694 25.5281 35.474 29.0809 35.474 32.6353C32.9633 34.1175 30.4541 35.5998 27.9434 37.082C24.5673 39.0404 21.1927 40.9989 17.8165 42.9573C17.5505 43.1017 17.2813 43.2399 17.0183 43.3904C14.8762 44.6254 12.734 45.8619 10.5933 47.0968C10.3563 47.1767 10.0979 47.2197 9.8869 47.3441C7.41443 48.7941 4.94348 50.2472 2.48476 51.7218C1.73859 52.1703 1.03217 52.6879 0.30587 53.1748Z" fill="#F41868"/>
<path d="M70.624 21.2703C70.6301 25.0012 70.6484 28.7337 70.6194 32.4647C70.6178 32.732 70.3365 33.096 70.0857 33.2466C68.2295 34.3571 66.3472 35.4231 64.4772 36.5106C64.127 36.7149 63.7922 36.9468 63.4512 37.1649C60.046 39.131 56.6423 41.0971 53.2371 43.0632C50.101 44.8603 46.9649 46.6575 43.8289 48.4531C41.046 50.0459 38.2616 51.6388 35.4787 53.2301C35.4772 49.344 35.4757 45.4563 35.4741 41.5702C38.0154 40.0864 40.5567 38.6042 43.0995 37.1204C46.3839 35.2219 49.6683 33.3234 52.9512 31.4202C53.0338 31.3726 53.0919 31.2805 53.1622 31.2083C53.3029 31.1591 53.4573 31.1315 53.5842 31.0593C55.7493 29.8013 57.913 28.5402 60.0735 27.273C60.1943 27.2023 60.2769 27.0687 60.3778 26.9643C60.6897 26.8798 61.0399 26.8583 61.3075 26.6985C63.5536 25.3683 65.7784 24.0028 68.0246 22.6726C68.8686 22.1719 69.7555 21.7357 70.624 21.2703Z" fill="#32DD88"/>
<path d="M0.305908 53.1749C1.03221 52.688 1.73863 52.1704 2.48634 51.7219C4.94505 50.2473 7.416 48.7942 9.88848 47.3442C10.0995 47.2198 10.3579 47.1768 10.5949 47.0969C10.861 47.2859 11.1132 47.4963 11.3931 47.6606C19.4191 52.3854 27.4466 57.1071 35.4741 61.8273C35.4741 65.3816 35.4787 68.9344 35.468 72.4888C35.4665 72.7791 35.3655 73.0678 35.3105 73.3566C31.8671 71.3798 28.4206 69.409 24.9817 67.4245C16.7539 62.6782 8.53068 57.9243 0.305908 53.1749Z" fill="#D31157"/>
<path d="M70.6241 21.2703C69.7556 21.7357 68.8703 22.1719 68.0216 22.6742C65.7755 24.0044 63.5507 25.3714 61.3045 26.7001C61.0354 26.8598 60.6868 26.8798 60.3748 26.9658C60.2831 26.9243 60.1868 26.8905 60.0996 26.8399C51.8917 22.0137 43.6822 17.186 35.4742 12.3583C35.4742 8.80548 35.4696 5.25114 35.4819 1.69834C35.4834 1.40957 35.5874 1.1208 35.6424 0.832031C38.6898 2.57848 41.7403 4.31725 44.7816 6.07291C53.1822 10.9267 61.5782 15.7851 69.9712 20.6528C70.2219 20.7987 70.407 21.0614 70.6241 21.2703Z" fill="#2DCC7D"/>
<path d="M17.7907 31.1469C14.3626 33.1283 10.9345 35.1098 7.50633 37.0912C5.10725 35.6935 2.70817 34.2972 0.309082 32.8995C1.13936 32.345 1.94823 31.7582 2.80144 31.2436C5.0782 29.8735 7.36872 28.528 9.66535 27.1932C9.936 27.0365 10.2861 27.0165 10.5996 26.9336C12.9956 28.3375 15.3931 29.7414 17.7907 31.1469Z" fill="#2DCC7D"/>
<path d="M53.2356 43.0631C56.6408 41.097 60.0445 39.1309 63.4497 37.1648C65.8442 38.538 68.2371 39.9127 70.6316 41.2859C67.8961 42.9018 65.1637 44.5238 62.4237 46.132C61.7463 46.5283 61.0429 46.8801 60.3518 47.2518C57.9787 45.8571 55.6072 44.4593 53.2356 43.0631Z" fill="#D31157"/>
<path d="M35.6392 21.1045C38.971 23.0153 42.3059 24.9199 45.6346 26.8384C48.1484 28.2869 50.6514 29.7522 53.1606 31.2099C53.0918 31.2821 53.0337 31.3743 52.9496 31.4219C49.6667 33.325 46.3823 35.222 43.0979 37.122C40.5566 35.626 38.0169 34.1299 35.4756 32.6338C35.4756 29.0795 35.471 25.5267 35.4817 21.9723C35.4817 21.6836 35.5841 21.3933 35.6392 21.1045Z" fill="#D31157"/>
<path d="M35.4771 53.2318C31.1209 50.7112 26.7631 48.1936 22.4099 45.6669C20.8732 44.7745 19.3487 43.8605 17.8181 42.9558C21.1943 40.9974 24.5689 39.039 27.945 37.0806C28.1362 37.205 28.3227 37.3371 28.5184 37.4523C30.8365 38.827 33.1545 40.1987 35.4725 41.5719C35.4741 45.458 35.4756 49.3441 35.4771 53.2318Z" fill="#2DCC7D"/>
<path d="M76.6055 44.0048V39.2739L85.0764 26.525H76.6055V21.1797H92.2935V25.9106L83.8226 38.6595H92.2935V44.0048H76.6055Z" fill="white"/>
<path d="M105.688 44.0048V26.525H99.9696V21.1797H117.34V26.525H111.621V44.0048H105.688Z" fill="white"/>
<path d="M124.078 44.0048L126.769 21.1797H132.335L137.014 37.2157L141.692 21.1797H147.197L149.919 44.0048H144.2L142.732 31.686L139.735 44.0048H134.17L131.203 31.9625L129.796 44.0048H124.078Z" fill="white"/>
<path d="M76.6865 52.7601L78.4205 47.6728H79.1223L80.8562 52.7601H80.292L79.7829 51.3086H77.7462L77.2507 52.7601H76.6865ZM77.8838 50.8109H79.6452L78.7714 48.1567L77.8838 50.8109Z" fill="white"/>
<path d="M90.2282 52.8016C89.9255 52.8016 89.6617 52.767 89.4369 52.6979C89.2122 52.6288 89.0264 52.5044 88.8796 52.3246C88.7328 52.1403 88.6227 51.8777 88.5493 51.5367C88.4805 51.1957 88.4461 50.751 88.4461 50.2026C88.4461 49.6865 88.4828 49.2626 88.5562 48.9308C88.6296 48.5944 88.7397 48.3318 88.8865 48.1428C89.0379 47.9539 89.2282 47.8226 89.4576 47.7489C89.6869 47.6705 89.9576 47.6313 90.2695 47.6313C90.4117 47.6313 90.57 47.6406 90.7443 47.659C90.9186 47.6728 91.0906 47.6936 91.2603 47.7212C91.4301 47.7489 91.5837 47.7811 91.7214 47.818V48.2258C91.648 48.2166 91.5379 48.205 91.3911 48.1912C91.2489 48.1728 91.086 48.1567 90.9025 48.1428C90.7236 48.129 90.5402 48.1221 90.3521 48.1221C90.109 48.1221 89.9003 48.1521 89.7259 48.212C89.5516 48.2673 89.4094 48.3709 89.2993 48.523C89.1938 48.6705 89.1158 48.8824 89.0654 49.1589C89.0149 49.4308 88.9897 49.781 88.9897 50.2095C88.9897 50.6519 89.0126 51.0113 89.0585 51.2878C89.109 51.5643 89.1847 51.7763 89.2856 51.9237C89.3911 52.0712 89.5287 52.1726 89.6984 52.2279C89.8727 52.2832 90.086 52.3108 90.3383 52.3108C90.6824 52.3108 90.9645 52.3016 91.1847 52.2832C91.4048 52.2647 91.5837 52.244 91.7214 52.221V52.6357C91.5103 52.6864 91.2718 52.7278 91.0058 52.7601C90.7443 52.7877 90.4851 52.8016 90.2282 52.8016Z" fill="white"/>
<path d="M99.2905 52.7601L101.024 47.6728H101.726L103.46 52.7601H102.896L102.387 51.3086H100.35L99.8548 52.7601H99.2905ZM100.488 50.8109H102.249L101.375 48.1567L100.488 50.8109Z" fill="white"/>
<path d="M111.241 52.7601V47.6728H113.243C113.652 47.6728 113.977 47.7719 114.221 47.97C114.464 48.1682 114.638 48.4562 114.743 48.834C114.854 49.2119 114.909 49.6727 114.909 50.2165C114.909 51.0136 114.769 51.638 114.489 52.0896C114.209 52.5366 113.794 52.7601 113.243 52.7601H111.241ZM111.792 52.2693H113.202C113.606 52.2693 113.899 52.085 114.083 51.7164C114.271 51.3431 114.365 50.8432 114.365 50.2165C114.365 49.7142 114.324 49.3133 114.241 49.0138C114.163 48.7142 114.037 48.5 113.863 48.3709C113.693 48.2373 113.473 48.1705 113.202 48.1705H111.792V52.2693Z" fill="white"/>
<path d="M123.936 52.7877C123.826 52.7877 123.706 52.7785 123.578 52.7601C123.454 52.7417 123.337 52.7002 123.227 52.6357C123.122 52.5712 123.034 52.4721 122.966 52.3385C122.897 52.2048 122.862 52.0251 122.862 51.7993V48.6958C122.862 48.4331 122.911 48.2281 123.007 48.0806C123.108 47.9332 123.234 47.8295 123.385 47.7696C123.541 47.7051 123.7 47.6728 123.86 47.6728C124.282 47.6774 124.663 47.6866 125.002 47.7005C125.346 47.7143 125.672 47.7258 125.979 47.735V48.1774H123.998C123.819 48.1774 123.677 48.2258 123.571 48.3226C123.466 48.4193 123.413 48.5737 123.413 48.7857V49.9884L125.677 50.0229V50.4446L123.413 50.4791V51.6749C123.413 51.8454 123.44 51.9744 123.495 52.062C123.555 52.1495 123.631 52.2071 123.722 52.2348C123.819 52.2624 123.92 52.2763 124.025 52.2763H125.979V52.7186C125.658 52.7371 125.321 52.7509 124.968 52.7601C124.615 52.7739 124.271 52.7831 123.936 52.7877Z" fill="white"/>
<path d="M133.781 52.7601L134.359 47.6728H134.917L136.265 52.0689L137.587 47.6728H138.151L138.742 52.7601H138.213L137.731 48.5437L136.513 52.7601H136.011L134.772 48.5714L134.311 52.7601H133.781Z" fill="white"/>
<path d="M147.728 52.7601V51.0736L146.118 47.6728H146.689L148.01 50.5206L149.331 47.6728H149.882L148.279 51.0736V52.7601H147.728Z" fill="white"/>
</g>
<defs>
<clipPath id="clip0_304_16851">
<rect width="150" height="72.807" fill="white" transform="translate(0 0.689209)"/>
</clipPath>
</defs>
</svg>
